<?xml version="1.0" encoding="UTF-8"?>
<svg width="100pt" height="100pt" version="1.1" viewBox="0 0 100 100" xmlns="http://www.w3.org/2000/svg">
 <path d="m21.02 63.062c-9.3086-3.3047-18.617-15.914-18.617-25.824 0-10.812 7.8086-19.82 17.117-19.82 4.5039 0 8.1094 1.5 10.812 4.2031-6.6055 6.3047-9.9102 15.914-9.6094 26.125-3.6055 6.0078-2.7031 11.41 0.30078 15.316zm14.414-15.617c0.90234 0 1.5 0.60156 1.5 1.5 0 0.90234-0.60156 1.8008-1.5 1.8008-0.90234 0-1.5-0.90234-1.5-1.8008 0-0.90234 0.60156-1.5 1.5-1.5zm29.129 0c-0.90234 0-1.5 0.60156-1.5 1.5 0 0.90234 0.60156 1.8008 1.5 1.8008 0.90234 0 1.8008-0.90234 1.8008-1.8008 0-0.90234-0.90234-1.5-1.8008-1.5zm-14.414-30.93c-20.121 0-27.93 17.117-27.027 31.832-4.8047 7.8086-2.4023 15.617 9.0078 19.52-0.90234 2.7031-5.4062 4.8047-4.5039 7.207 0.30078 1.2031 1.2031 1.8008 2.1016 1.8008 4.5039 0.90234 10.812-2.7031 12.312-7.207 0.60156-3.0039-0.90234-7.5078-1.2031-11.41 0-11.41 18.316-11.41 18.316 0-0.30078 3.9023-1.5 8.4102-0.90234 11.41 1.5 4.5039 7.5078 8.1094 12.012 7.207 0.90234 0 2.1016-0.60156 2.4023-1.8008 0.60156-2.4023-3.9023-4.5039-4.8047-7.207 11.41-3.9023 14.113-11.711 9.3086-19.52 0.60156-14.715-7.207-31.832-27.027-31.832zm-12.914 47.148c1.8008 0 3.3047 1.5 3.3047 3.3047 0.30078 5.1055-6.9062 8.707-10.512 8.1094-3.3047-0.60156 4.2031-3.3047 4.2031-8.1094 0-1.8008 1.5-3.3047 3.0039-3.3047zm25.527 0c-1.8008 0-3.3047 1.5-3.3047 3.3047-0.30078 5.1055 7.207 8.707 10.512 8.1094 3.3047-0.60156-4.2031-3.3047-3.9023-8.1094 0-1.8008-1.5-3.3047-3.3047-3.3047zm-27.93-17.719c2.1016 0 3.6055 1.5 3.6055 3.3047 0 2.1016-1.5 3.6055-3.6055 3.6055-2.1016 0-3.6055-1.5-3.6055-3.6055 0-1.8008 1.5-3.3047 3.6055-3.3047zm30.629 0c-2.1016 0-3.9023 1.5-3.9023 3.3047 0 2.1016 1.8008 3.6055 3.9023 3.6055 1.8008 0 3.6055-1.5 3.6055-3.6055 0-1.8008-1.8008-3.3047-3.6055-3.3047zm-10.512 35.734c0-1.5-0.60156-1.8008-1.5-2.7031 2.4023-6.6055 3.9023-18.02 3.9023-20.723 0-9.0078-14.715-9.0078-14.715 0 0 2.7031 1.8008 14.113 4.2031 20.723-1.2031 0.90234-1.8008 1.2031-1.8008 2.7031 0 2.7031 9.9102 2.7031 9.9102 0zm0.60156-19.82c-3.3047-2.4023-7.8086-2.4023-10.812 0 2.7031-5.707 7.8086-5.707 10.812 0zm-0.90234 6.3047c-3.0039-2.4023-6.3047-2.4023-9.3086 0 2.7031-5.4062 6.6055-5.4062 9.3086 0zm-1.2031 5.707c-2.4023-1.8008-4.2031-1.8008-6.9062 0 2.4023-4.5039 4.8047-4.5039 6.9062 0zm-1.5 7.207c0 0.90234-3.6055 0.90234-3.6055 0s3.6055-0.90234 3.6055 0zm27.027-18.02c9.3086-3.3047 18.617-15.914 18.617-25.824 0-10.812-7.5078-19.82-17.117-19.82-4.2031 0-7.8086 1.5-10.812 4.2031 6.6055 6.3047 10.211 15.914 9.6094 26.125 3.6055 6.0078 3.0039 11.41-0.30078 15.316z" fill-rule="evenodd"/>
</svg>
