<?xml version="1.0" encoding="UTF-8"?>
<svg width="12pt" height="12pt" version="1.1" viewBox="0 0 100 100" xmlns="http://www.w3.org/2000/svg">
 <g fill="#676767">
  <path d="m36.996 66.684c-16.996 0-30.824-13.828-30.824-30.828 0-16.996 13.824-30.824 30.824-30.824 16.996 0 30.828 13.828 30.828 30.828 0 16.996-13.832 30.824-30.828 30.824zm0-53.668c-12.594 0-22.844 10.246-22.844 22.844 0 12.594 10.246 22.844 22.844 22.844 12.594 0 22.844-10.246 22.844-22.844s-10.25-22.844-22.844-22.844z"/>
  <path d="m86.648 93.402-28.125-28.121c-0.73047-0.73047-0.73047-1.9297 0-2.6602l5.1836-5.1836c0.73047-0.73047 1.9297-0.73047 2.6602 0l28.125 28.125c0.73047 0.73047 0.73047 1.9297 0 2.6602l-5.1836 5.1836c-0.73047 0.73047-1.9297 0.73047-2.6602-0.003906z"/>
 </g>
</svg>
